<?xml version="1.0" encoding="UTF-8" standalone="no"?>
<!-- Created with Inkscape (http://www.inkscape.org/) -->

<svg
   width="57.178967mm"
   height="34.597294mm"
   viewBox="0 0 57.178967 34.597294"
   version="1.1"
   id="svg1"
   inkscape:version="1.4.2 (ebf0e940d0, 2025-05-08)"
   sodipodi:docname="eloop-logo.svg"
   xmlns:inkscape="http://www.inkscape.org/namespaces/inkscape"
   xmlns:sodipodi="http://sodipodi.sourceforge.net/DTD/sodipodi-0.dtd"
   xmlns="http://www.w3.org/2000/svg"
   xmlns:svg="http://www.w3.org/2000/svg">
  <sodipodi:namedview
     id="namedview1"
     pagecolor="#ffffff"
     bordercolor="#000000"
     borderopacity="0.25"
     inkscape:showpageshadow="2"
     inkscape:pageopacity="0.0"
     inkscape:pagecheckerboard="true"
     inkscape:deskcolor="#d1d1d1"
     inkscape:document-units="mm"
     inkscape:zoom="1.2580247"
     inkscape:cx="66.373895"
     inkscape:cy="-20.269872"
     inkscape:window-width="1440"
     inkscape:window-height="834"
     inkscape:window-x="0"
     inkscape:window-y="0"
     inkscape:window-maximized="1"
     inkscape:current-layer="svg1"
     showborder="false" />
  <defs
     id="defs1">
    <rect
       x="58.452827"
       y="283.42825"
       width="379.94339"
       height="222.93637"
       id="rect2" />
    <rect
       x="67.389687"
       y="331.17218"
       width="365.25735"
       height="107.92237"
       id="rect1" />
  </defs>
  <g
     inkscape:label="Layer 1"
     inkscape:groupmode="layer"
     id="layer1"
     style="display:inline"
     transform="translate(-19.042731,-75.746842)">
    <path
       d="M 34.05269,88.104048 V 85.585194 H 31.578301 V 78.20643 h 3.704175 v -2.459588 h -6.163747 v 22.225191 h 6.163747 v -2.48922 h -3.704175 v -7.378765 z m 4.31167,7.408397 V 75.746842 h -2.459572 v 22.225191 h 6.163747 v -2.459588 z m 6.845326,2.459588 h 2.341039 q 0.563034,0 1.022352,-0.385237 0.474134,-0.41487 0.800102,-1.096443 0.340784,-0.681572 0.518584,-1.600212 0.192617,-0.948276 0.192617,-2.015085 v -7.112061 q 0,-1.007542 -0.192617,-1.926184 -0.1778,-0.91864 -0.518584,-1.600212 -0.325968,-0.711206 -0.800102,-1.126077 -0.459318,-0.414871 -1.022352,-0.414871 h -2.341039 q -0.533401,0 -0.992719,0.414871 -0.459318,0.414871 -0.800102,1.126077 -0.340784,0.681572 -0.533401,1.600212 -0.192617,0.918642 -0.192617,1.926184 v 7.112061 q 0,1.066809 0.1778,2.015085 0.192618,0.91864 0.518585,1.600212 0.340784,0.681573 0.800102,1.096443 0.459317,0.385237 1.022352,0.385237 z m 2.415122,-2.48922 H 45.150419 V 83.155239 h 2.474389 z m 5.615534,2.48922 h 2.341038 q 0.563035,0 1.022353,-0.385237 0.474134,-0.41487 0.800102,-1.096443 0.340784,-0.681572 0.518584,-1.600212 0.192617,-0.948276 0.192617,-2.015085 v -7.112061 q 0,-1.007542 -0.192617,-1.926184 -0.1778,-0.91864 -0.518584,-1.600212 -0.325968,-0.711206 -0.800102,-1.126077 -0.459318,-0.414871 -1.022353,-0.414871 h -2.341038 q -0.533401,0 -0.992719,0.414871 -0.459318,0.414871 -0.800102,1.126077 -0.340784,0.681572 -0.533401,1.600212 -0.192617,0.918642 -0.192617,1.926184 v 7.112061 q 0,1.066809 0.1778,2.015085 0.192617,0.91864 0.518585,1.600212 0.340784,0.681573 0.800102,1.096443 0.459317,0.385237 1.022352,0.385237 z m 2.415122,-2.48922 H 53.181075 V 83.155239 h 2.474389 z m 3.096696,7.438027 h 2.459572 v -4.948807 h 2.400305 q 0.577852,0 1.037169,-0.444503 0.474135,-0.444505 0.800102,-1.155709 0.340784,-0.740841 0.518585,-1.659483 0.1778,-0.91864 0.1778,-1.837282 v -7.112061 q 0,-0.977908 -0.192617,-1.866915 -0.192617,-0.918642 -0.533401,-1.629849 -0.340784,-0.711204 -0.814919,-1.126075 -0.459317,-0.444505 -0.992719,-0.444505 H 58.75216 Z m 2.459572,-7.438027 V 83.155239 h 2.474389 v 12.327574 z"
       id="text3"
       style="font-size:14.8167px;line-height:0;font-family:ChicagoFLF;-inkscape-font-specification:'ChicagoFLF, Normal';letter-spacing:-1.85208px;stroke-width:1.41422"
       aria-label="ELoop" />
  </g>
  <rect
     style="display:inline;fill:#e70000;fill-opacity:1;stroke:none;stroke-width:0.812101;stroke-dasharray:none;stroke-opacity:1"
     id="rect3"
     width="6.2974997"
     height="2.5190001"
     x="1.2595"
     y="9.8530951" />
  <rect
     style="display:inline;fill:#e70000;fill-opacity:1;stroke:none;stroke-width:0.62905;stroke-dasharray:none;stroke-opacity:1"
     id="rect3-1"
     width="3.7784982"
     height="2.5190001"
     x="1.2595"
     y="9.8530951" />
  <rect
     style="fill:#e70000;fill-opacity:1;stroke:none;stroke-width:0.812223;stroke-dasharray:none;stroke-opacity:1"
     id="rect3-8"
     width="6.2993932"
     height="2.5190001"
     x="49.621956"
     y="9.8530951" />
  <rect
     style="fill:#e70000;fill-opacity:1;stroke:none;stroke-width:2.17195;stroke-dasharray:none;stroke-opacity:1"
     id="rect4"
     width="2.5190001"
     height="11.1126"
     x="1.4305115e-06"
     y="11.112594" />
  <rect
     style="fill:#e70000;fill-opacity:1;stroke:none;stroke-width:2.17195;stroke-dasharray:none;stroke-opacity:1"
     id="rect4-8-5"
     width="2.5190001"
     height="11.112595"
     x="54.659966"
     y="22.225197" />
  <rect
     style="fill:#e70000;fill-opacity:1;stroke:none;stroke-width:2.17195;stroke-dasharray:none;stroke-opacity:1"
     id="rect4-8"
     width="2.5190001"
     height="11.112596"
     x="1.4305115e-06"
     y="22.225197" />
  <rect
     style="display:none;fill:#00e721;fill-opacity:1;stroke:none;stroke-width:1.7563;stroke-dasharray:none;stroke-opacity:1"
     id="rect5"
     width="2.5190001"
     height="2.5190001"
     x="7.5569987"
     y="9.8530951" />
  <rect
     style="display:none;fill:#00e721;fill-opacity:1;stroke:none;stroke-width:1.7563;stroke-dasharray:none;stroke-opacity:1"
     id="rect5-0"
     width="2.5190001"
     height="2.5190001"
     x="5.0379977"
     y="12.372092" />
  <rect
     style="display:none;fill:#00e721;fill-opacity:1;stroke:none;stroke-width:1.7563;stroke-dasharray:none;stroke-opacity:1"
     id="rect5-3"
     width="2.5190001"
     height="2.5190001"
     x="5.0379977"
     y="7.3340983" />
  <rect
     style="display:none;fill:#e70000;fill-opacity:1;stroke:none;stroke-width:1.7563;stroke-dasharray:none;stroke-opacity:1"
     id="rect5-4"
     width="2.5190001"
     height="2.5190001"
     x="47.102959"
     y="9.8530951" />
  <rect
     style="display:inline;fill:#e70000;fill-opacity:1;stroke:none;stroke-width:2.17195;stroke-dasharray:none;stroke-opacity:1"
     id="rect4-8-0"
     width="2.5190001"
     height="11.112592"
     x="54.659966"
     y="11.112601" />
  <rect
     style="fill:#e70000;fill-opacity:1;stroke:none;stroke-width:2.89484;stroke-dasharray:none;stroke-opacity:1"
     id="rect6"
     width="54.659966"
     height="2.5190001"
     x="1.2595019"
     y="32.078293" />
  <path
     style="fill:#e70000;fill-opacity:1;stroke:none;stroke-width:3;stroke-dasharray:none;stroke-opacity:1"
     d="m 5.0379972,7.334096 3.778502,3.778499 -3.778502,3.778493 z"
     id="path6" />
  <circle
     style="fill:#e70000;fill-opacity:1;stroke:none;stroke-width:3;stroke-dasharray:none;stroke-opacity:1"
     id="path7"
     cx="1.2595019"
     cy="33.337791"
     r="1.2595" />
  <circle
     style="fill:#e70000;fill-opacity:1;stroke:none;stroke-width:3;stroke-dasharray:none;stroke-opacity:1"
     id="path7-3"
     cx="55.919464"
     cy="33.337791"
     r="1.2595" />
  <circle
     style="fill:#e70000;fill-opacity:1;stroke:none;stroke-width:3;stroke-dasharray:none;stroke-opacity:1"
     id="path7-6"
     cx="55.919449"
     cy="11.112594"
     r="1.2595" />
  <circle
     style="fill:#e70000;fill-opacity:1;stroke:none;stroke-width:3;stroke-dasharray:none;stroke-opacity:1"
     id="path7-5"
     cx="1.2595"
     cy="11.112594"
     r="1.2595" />
</svg>
